<svg width="35" height="35" viewBox="0 0 35 35" fill="none" xmlns="http://www.w3.org/2000/svg">
<g id="commentIcon">
<path id="Vector" d="M5.94331 6.92096H29.5938C30.164 6.92096 30.7109 7.14748 31.1141 7.55069C31.5173 7.9539 31.7439 8.50078 31.7439 9.07101V30.5715C31.7463 30.9813 31.6304 31.3831 31.4102 31.7287C31.19 32.0743 30.8747 32.349 30.5022 32.5199C30.2176 32.6521 29.9076 32.7209 29.5938 32.7215C29.0891 32.7203 28.6011 32.5403 28.2164 32.2136L28.2043 32.2042L23.8156 28.4214H5.94331C5.37308 28.4214 4.82621 28.1949 4.423 27.7917C4.01978 27.3885 3.79326 26.8416 3.79326 26.2714V9.07101C3.79326 8.50078 4.01978 7.9539 4.423 7.55069C4.82621 7.14748 5.37308 6.92096 5.94331 6.92096ZM5.94331 26.2714H24.2187C24.4768 26.2715 24.7263 26.3645 24.9215 26.5334L29.5938 30.5715V9.07101H5.94331V26.2714ZM23.1437 15.5211C23.1437 15.236 23.0304 14.9626 22.8288 14.761C22.6272 14.5594 22.3538 14.4461 22.0687 14.4461H13.4685C13.1834 14.4461 12.9099 14.5594 12.7083 14.761C12.5067 14.9626 12.3934 15.236 12.3934 15.5211C12.3934 15.8063 12.5067 16.0797 12.7083 16.2813C12.9099 16.4829 13.1834 16.5962 13.4685 16.5962H22.0687C22.3538 16.5962 22.6272 16.4829 22.8288 16.2813C23.0304 16.0797 23.1437 15.8063 23.1437 15.5211ZM23.1437 19.8212C23.1437 19.5361 23.0304 19.2627 22.8288 19.0611C22.6272 18.8595 22.3538 18.7462 22.0687 18.7462H13.4685C13.1834 18.7462 12.9099 18.8595 12.7083 19.0611C12.5067 19.2627 12.3934 19.5361 12.3934 19.8212C12.3934 20.1063 12.5067 20.3798 12.7083 20.5814C12.9099 20.783 13.1834 20.8963 13.4685 20.8963H22.0687C22.3538 20.8963 22.6272 20.783 22.8288 20.5814C23.0304 20.3798 23.1437 20.1063 23.1437 19.8212Z" fill="#DFDFDF"/>
</g>
</svg>
