<svg width="30" height="30" viewBox="0 0 30 30" fill="none" xmlns="http://www.w3.org/2000/svg">
<g id="dislikeIcon">
<path id="Vector" d="M28.0244 17.9651L26.6614 7.06134C26.5784 6.40244 26.2577 5.7965 25.7595 5.35732C25.2614 4.91814 24.62 4.67592 23.9559 4.67615H4.42007C3.9381 4.67615 3.47586 4.86761 3.13505 5.20842C2.79425 5.54923 2.60278 6.01146 2.60278 6.49344V16.4885C2.60278 16.9705 2.79425 17.4327 3.13505 17.7735C3.47586 18.1143 3.9381 18.3058 4.42007 18.3058H9.31085L13.6019 26.8902C13.6775 27.0412 13.7936 27.1681 13.9372 27.2568C14.0808 27.3455 14.2464 27.3924 14.4152 27.3922C15.6201 27.3922 16.7757 26.9136 17.6277 26.0616C18.4797 25.2095 18.9584 24.054 18.9584 22.849V21.0317H25.3189C25.7057 21.0319 26.0881 20.9497 26.4407 20.7906C26.7933 20.6315 27.1081 20.3993 27.364 20.1092C27.6199 19.8191 27.8111 19.4779 27.925 19.1082C28.0388 18.7385 28.0727 18.3489 28.0244 17.9651ZM8.96329 16.4885H4.42007V6.49344H8.96329V16.4885ZM26.0004 18.9066C25.9157 19.0041 25.8109 19.082 25.6933 19.1351C25.5757 19.1883 25.448 19.2153 25.3189 19.2145H18.0497C17.8087 19.2145 17.5776 19.3102 17.4072 19.4806C17.2368 19.651 17.1411 19.8821 17.1411 20.1231V22.849C17.1413 23.4793 16.9231 24.0901 16.5236 24.5776C16.1241 25.065 15.5681 25.399 14.9501 25.5227L10.7806 17.1825V6.49344H23.9559C24.1773 6.49336 24.3911 6.5741 24.5571 6.72049C24.7232 6.86689 24.8301 7.06887 24.8577 7.2885L26.2207 18.1922C26.2377 18.3202 26.2269 18.4503 26.1888 18.5736C26.1508 18.6969 26.0865 18.8105 26.0004 18.9066Z" fill="white"/>
</g>
</svg>
