<svg width="30" height="30" viewBox="0 0 30 30" fill="none" xmlns="http://www.w3.org/2000/svg">
<g id="LikeIcon">
<path id="Vector" d="M27.4397 9.2331C27.1839 8.94316 26.8693 8.71097 26.5168 8.55196C26.1643 8.39294 25.782 8.31075 25.3953 8.31083H19.0348V6.49354C19.0348 5.2886 18.5561 4.13301 17.7041 3.281C16.8521 2.42898 15.6965 1.95032 14.4916 1.95032C14.3228 1.9502 14.1573 1.9971 14.0136 2.08578C13.87 2.17445 13.7539 2.30138 13.6783 2.45234L9.38726 11.0368H4.49649C4.01451 11.0368 3.55228 11.2282 3.21147 11.569C2.87066 11.9098 2.6792 12.3721 2.6792 12.854V22.8491C2.6792 23.3311 2.87066 23.7933 3.21147 24.1341C3.55228 24.475 4.01451 24.6664 4.49649 24.6664H24.0323C24.6964 24.6666 25.3378 24.4244 25.836 23.9852C26.3341 23.5461 26.6548 22.9401 26.7378 22.2812L28.1008 11.3775C28.1491 10.9936 28.1151 10.6039 28.0012 10.2341C27.8872 9.86439 27.6958 9.52315 27.4397 9.2331ZM4.49649 12.854H9.03971V22.8491H4.49649V12.854ZM26.2971 11.1503L24.9342 22.0541C24.9065 22.2737 24.7996 22.4757 24.6335 22.6221C24.4675 22.7685 24.2537 22.8492 24.0323 22.8491H10.857V12.1601L15.0265 3.81985C15.6445 3.94354 16.2005 4.27753 16.6 4.765C16.9995 5.25248 17.2177 5.8633 17.2175 6.49354V9.21947C17.2175 9.46046 17.3132 9.69157 17.4836 9.86198C17.654 10.0324 17.8852 10.1281 18.1261 10.1281H25.3953C25.5242 10.1281 25.6517 10.1555 25.7692 10.2085C25.8868 10.2615 25.9917 10.3389 26.077 10.4356C26.1623 10.5323 26.226 10.6461 26.264 10.7693C26.302 10.8925 26.3132 11.0224 26.2971 11.1503Z" fill="#D2D2D2"/>
</g>
</svg>
