<svg width="50" height="51" viewBox="0 0 50 51" fill="none" xmlns="http://www.w3.org/2000/svg">
<g id="nextButton">
<path id="Vector" d="M39.0625 6.75C38.6481 6.75 38.2507 6.91462 37.9576 7.20765C37.6646 7.50067 37.5 7.8981 37.5 8.3125V21.834L14.1465 7.22852C13.6762 6.93328 13.1355 6.76912 12.5804 6.75303C12.0254 6.73695 11.4761 6.86953 10.9895 7.13704C10.5028 7.40455 10.0966 7.79727 9.81272 8.27453C9.52887 8.7518 9.37774 9.29627 9.375 9.85156V41.1484C9.38084 41.7025 9.53388 42.245 9.81844 42.7204C10.103 43.1959 10.5088 43.5871 10.9944 43.854C11.4799 44.1209 12.0277 44.254 12.5816 44.2394C13.1355 44.2249 13.6756 44.0634 14.1465 43.7715L37.5 29.166V42.6875C37.5 43.1019 37.6646 43.4993 37.9576 43.7924C38.2507 44.0854 38.6481 44.25 39.0625 44.25C39.4769 44.25 39.8743 44.0854 40.1674 43.7924C40.4604 43.4993 40.625 43.1019 40.625 42.6875V8.3125C40.625 7.8981 40.4604 7.50067 40.1674 7.20765C39.8743 6.91462 39.4769 6.75 39.0625 6.75ZM12.5 41.1113V9.88477L37.4688 25.5098L12.5 41.1113Z" fill="#DCDCDC"/>
</g>
</svg>
