<svg width="200" height="200" viewBox="0 0 200 200" fill="none" xmlns="http://www.w3.org/2000/svg">
<g id="playButton">
<path id="Vector" d="M100 19.25C83.9303 19.25 68.2214 24.0152 54.86 32.9431C41.4985 41.871 31.0844 54.5605 24.9348 69.407C18.7852 84.2535 17.1762 100.59 20.3112 116.351C23.4463 132.112 31.1846 146.589 42.5476 157.952C53.9106 169.315 68.388 177.054 84.1489 180.189C99.9099 183.324 116.247 181.715 131.093 175.565C145.94 169.416 158.629 159.002 167.557 145.64C176.485 132.279 181.25 116.57 181.25 100.5C181.227 78.9581 172.66 58.3051 157.427 43.0727C142.195 27.8403 121.542 19.2727 100 19.25ZM100 169.25C86.4026 169.25 73.1105 165.218 61.8046 157.664C50.4987 150.109 41.6868 139.372 36.4833 126.809C31.2798 114.247 29.9183 100.424 32.571 87.0875C35.2238 73.7513 41.7716 61.5013 51.3864 51.8864C61.0013 42.2715 73.2514 35.7237 86.5876 33.071C99.9238 30.4183 113.747 31.7798 126.31 36.9833C138.872 42.1868 149.609 50.9987 157.164 62.3045C164.718 73.6104 168.75 86.9025 168.75 100.5C168.729 118.727 161.479 136.202 148.591 149.091C135.702 161.979 118.227 169.229 100 169.25ZM87.5 75.5V125.5C87.5 127.158 86.8416 128.747 85.6695 129.919C84.4973 131.092 82.9076 131.75 81.25 131.75C79.5924 131.75 78.0027 131.092 76.8306 129.919C75.6585 128.747 75 127.158 75 125.5V75.5C75 73.8424 75.6585 72.2527 76.8306 71.0806C78.0027 69.9085 79.5924 69.25 81.25 69.25C82.9076 69.25 84.4973 69.9085 85.6695 71.0806C86.8416 72.2527 87.5 73.8424 87.5 75.5ZM125 75.5V125.5C125 127.158 124.342 128.747 123.169 129.919C121.997 131.092 120.408 131.75 118.75 131.75C117.092 131.75 115.503 131.092 114.331 129.919C113.159 128.747 112.5 127.158 112.5 125.5V75.5C112.5 73.8424 113.159 72.2527 114.331 71.0806C115.503 69.9085 117.092 69.25 118.75 69.25C120.408 69.25 121.997 69.9085 123.169 71.0806C124.342 72.2527 125 73.8424 125 75.5Z" fill="#F7F7F7"/>
</g>
</svg>
