<svg width="50" height="51" viewBox="0 0 50 51" fill="none" xmlns="http://www.w3.org/2000/svg">
<g id="prevButton">
<path id="Vector" d="M39.0254 7.14064C38.5373 6.87019 37.9858 6.73535 37.428 6.75012C36.8702 6.76489 36.3266 6.92873 35.8535 7.22463L12.5 21.834V8.31252C12.5 7.89811 12.3354 7.50069 12.0424 7.20766C11.7493 6.91464 11.3519 6.75002 10.9375 6.75002C10.5231 6.75002 10.1257 6.91464 9.83265 7.20766C9.53962 7.50069 9.375 7.89811 9.375 8.31252V42.6875C9.375 43.1019 9.53962 43.4993 9.83265 43.7924C10.1257 44.0854 10.5231 44.25 10.9375 44.25C11.3519 44.25 11.7493 44.0854 12.0424 43.7924C12.3354 43.4993 12.5 43.1019 12.5 42.6875V29.166L35.8535 43.7715C36.3238 44.0667 36.8645 44.2309 37.4196 44.247C37.9746 44.2631 38.5239 44.1305 39.0105 43.863C39.4972 43.5955 39.9034 43.2027 40.1873 42.7255C40.4711 42.2482 40.6223 41.7037 40.625 41.1485V9.85158C40.6249 9.298 40.4765 8.75456 40.1952 8.27779C39.9139 7.80102 39.5099 7.40835 39.0254 7.14064ZM37.5 41.125L12.5313 25.5L37.5 9.88869V41.125Z" fill="#E1E1E1"/>
</g>
</svg>
