<svg width="50" height="51" viewBox="0 0 50 51" fill="none" xmlns="http://www.w3.org/2000/svg">
<g id="repeatButton">
<path id="Vector" d="M4.68751 25.5C4.69164 21.7717 6.17455 18.1972 8.81089 15.5609C11.4472 12.9246 15.0217 11.4416 18.75 11.4375H39.9785L37.957 9.41798C37.6638 9.12479 37.4991 8.72715 37.4991 8.31251C37.4991 7.89788 37.6638 7.50023 37.957 7.20705C38.2502 6.91386 38.6479 6.74915 39.0625 6.74915C39.4771 6.74915 39.8748 6.91386 40.168 7.20705L44.8555 11.8945C45.0008 12.0397 45.116 12.212 45.1946 12.4017C45.2733 12.5914 45.3137 12.7947 45.3137 13C45.3137 13.2054 45.2733 13.4087 45.1946 13.5984C45.116 13.788 45.0008 13.9604 44.8555 14.1055L40.168 18.793C39.8748 19.0862 39.4771 19.2509 39.0625 19.2509C38.6479 19.2509 38.2502 19.0862 37.957 18.793C37.6638 18.4998 37.4991 18.1021 37.4991 17.6875C37.4991 17.2729 37.6638 16.8752 37.957 16.582L39.9785 14.5625H18.75C15.8502 14.5656 13.07 15.719 11.0195 17.7695C8.96895 19.82 7.81561 22.6002 7.81251 25.5C7.81251 25.9144 7.64789 26.3118 7.35486 26.6049C7.06184 26.8979 6.66441 27.0625 6.25001 27.0625C5.83561 27.0625 5.43818 26.8979 5.14515 26.6049C4.85213 26.3118 4.68751 25.9144 4.68751 25.5ZM43.75 23.9375C43.3356 23.9375 42.9382 24.1021 42.6452 24.3952C42.3521 24.6882 42.1875 25.0856 42.1875 25.5C42.1844 28.3999 41.0311 31.1801 38.9806 33.2306C36.9301 35.2811 34.1499 36.4344 31.25 36.4375H10.0215L12.043 34.418C12.1881 34.2728 12.3033 34.1005 12.3819 33.9108C12.4604 33.7211 12.5009 33.5178 12.5009 33.3125C12.5009 33.1072 12.4604 32.9039 12.3819 32.7142C12.3033 32.5246 12.1881 32.3522 12.043 32.207C11.8978 32.0619 11.7255 31.9467 11.5358 31.8682C11.3461 31.7896 11.1428 31.7491 10.9375 31.7491C10.7322 31.7491 10.5289 31.7896 10.3392 31.8682C10.1496 31.9467 9.97721 32.0619 9.83204 32.207L5.14454 36.8945C4.99926 37.0397 4.88402 37.212 4.80538 37.4017C4.72675 37.5914 4.68628 37.7947 4.68628 38C4.68628 38.2054 4.72675 38.4087 4.80538 38.5984C4.88402 38.788 4.99926 38.9604 5.14454 39.1055L9.83204 43.793C9.97721 43.9382 10.1496 44.0533 10.3392 44.1319C10.5289 44.2104 10.7322 44.2509 10.9375 44.2509C11.1428 44.2509 11.3461 44.2104 11.5358 44.1319C11.7255 44.0533 11.8978 43.9382 12.043 43.793C12.1881 43.6478 12.3033 43.4755 12.3819 43.2858C12.4604 43.0961 12.5009 42.8928 12.5009 42.6875C12.5009 42.4822 12.4604 42.2789 12.3819 42.0892C12.3033 41.8996 12.1881 41.7272 12.043 41.582L10.0215 39.5625H31.25C34.9783 39.5584 38.5528 38.0755 41.1891 35.4391C43.8255 32.8028 45.3084 29.2284 45.3125 25.5C45.3125 25.0856 45.1479 24.6882 44.8549 24.3952C44.5618 24.1021 44.1644 23.9375 43.75 23.9375Z" fill="#DFDFDF"/>
</g>
</svg>
