<svg width="35" height="35" viewBox="0 0 35 35" fill="none" xmlns="http://www.w3.org/2000/svg">
<g id="SaveIcon">
<path id="Vector" d="M4.72632 8.93235C4.72632 8.65306 4.83727 8.3852 5.03476 8.18771C5.23225 7.99022 5.5001 7.87927 5.7794 7.87927H28.9472C29.2265 7.87927 29.4943 7.99022 29.6918 8.18771C29.8893 8.3852 30.0003 8.65306 30.0003 8.93235C30.0003 9.21165 29.8893 9.4795 29.6918 9.67699C29.4943 9.87449 29.2265 9.98543 28.9472 9.98543H5.7794C5.5001 9.98543 5.23225 9.87449 5.03476 9.67699C4.83727 9.4795 4.72632 9.21165 4.72632 8.93235ZM5.7794 18.4101H28.9472C29.2265 18.4101 29.4943 18.2991 29.6918 18.1016C29.8893 17.9042 30.0003 17.6363 30.0003 17.357C30.0003 17.0777 29.8893 16.8099 29.6918 16.6124C29.4943 16.4149 29.2265 16.3039 28.9472 16.3039H5.7794C5.5001 16.3039 5.23225 16.4149 5.03476 16.6124C4.83727 16.8099 4.72632 17.0777 4.72632 17.357C4.72632 17.6363 4.83727 17.9042 5.03476 18.1016C5.23225 18.2991 5.5001 18.4101 5.7794 18.4101ZM19.4695 24.7286H5.7794C5.5001 24.7286 5.23225 24.8395 5.03476 25.037C4.83727 25.2345 4.72632 25.5024 4.72632 25.7817C4.72632 26.0609 4.83727 26.3288 5.03476 26.5263C5.23225 26.7238 5.5001 26.8347 5.7794 26.8347H19.4695C19.7487 26.8347 20.0166 26.7238 20.2141 26.5263C20.4116 26.3288 20.5225 26.0609 20.5225 25.7817C20.5225 25.5024 20.4116 25.2345 20.2141 25.037C20.0166 24.8395 19.7487 24.7286 19.4695 24.7286ZM31.0533 24.7286H28.9472V22.6224C28.9472 22.3431 28.8362 22.0753 28.6387 21.8778C28.4413 21.6803 28.1734 21.5693 27.8941 21.5693C27.6148 21.5693 27.347 21.6803 27.1495 21.8778C26.952 22.0753 26.841 22.3431 26.841 22.6224V24.7286H24.7349C24.4556 24.7286 24.1877 24.8395 23.9902 25.037C23.7927 25.2345 23.6818 25.5024 23.6818 25.7817C23.6818 26.0609 23.7927 26.3288 23.9902 26.5263C24.1877 26.7238 24.4556 26.8347 24.7349 26.8347H26.841V28.9409C26.841 29.2202 26.952 29.488 27.1495 29.6855C27.347 29.883 27.6148 29.994 27.8941 29.994C28.1734 29.994 28.4413 29.883 28.6387 29.6855C28.8362 29.488 28.9472 29.2202 28.9472 28.9409V26.8347H31.0533C31.3326 26.8347 31.6005 26.7238 31.798 26.5263C31.9955 26.3288 32.1064 26.0609 32.1064 25.7817C32.1064 25.5024 31.9955 25.2345 31.798 25.037C31.6005 24.8395 31.3326 24.7286 31.0533 24.7286Z" fill="#DDDDDD"/>
</g>
</svg>
