<svg width="37" height="36" viewBox="0 0 37 36" fill="none" xmlns="http://www.w3.org/2000/svg">
<g id="shareIcon">
<path id="Vector" d="M33.5367 14.7026L22.5671 3.73304C22.4138 3.57954 22.2184 3.47495 22.0056 3.43251C21.7929 3.39007 21.5723 3.41168 21.3718 3.4946C21.1713 3.57753 20.9999 3.71805 20.8793 3.89839C20.7586 4.07874 20.6942 4.2908 20.6941 4.50777V10.0406C17.1372 10.345 13.2087 12.0864 9.97679 14.8274C6.08533 18.1293 3.66242 22.3841 3.15371 26.8076C3.11395 27.1515 3.18368 27.4992 3.35298 27.8012C3.52227 28.1031 3.78249 28.344 4.09662 28.4895C4.41075 28.6351 4.76277 28.6778 5.1026 28.6117C5.44242 28.5455 5.75272 28.3739 5.98935 28.1212C7.49767 26.5155 12.8645 21.438 20.6941 20.991V26.447C20.6942 26.6639 20.7586 26.876 20.8793 27.0563C20.9999 27.2367 21.1713 27.3772 21.3718 27.4601C21.5723 27.543 21.7929 27.5647 22.0056 27.5222C22.2184 27.4798 22.4138 27.3752 22.5671 27.2217L33.5367 16.2521C33.7419 16.0464 33.8571 15.7678 33.8571 15.4774C33.8571 15.1869 33.7419 14.9083 33.5367 14.7026ZM22.888 23.7992V19.8652C22.888 19.5743 22.7724 19.2952 22.5667 19.0895C22.361 18.8838 22.082 18.7682 21.791 18.7682C17.9407 18.7682 14.1905 19.7733 10.6446 21.7575C8.83862 22.7725 7.15598 23.9927 5.63009 25.3939C6.42539 22.1249 8.43008 19.0164 11.396 16.5003C14.5799 13.8004 18.4659 12.1865 21.791 12.1865C22.082 12.1865 22.361 12.0709 22.5667 11.8652C22.7724 11.6595 22.888 11.3805 22.888 11.0895V7.15692L31.2098 15.4774L22.888 23.7992Z" fill="#DEDEDE"/>
</g>
</svg>
