<svg width="50" height="51" viewBox="0 0 50 51" fill="none" xmlns="http://www.w3.org/2000/svg">
<g id="shuffleButton">
<path id="Vector" d="M46.418 35.332C46.5632 35.4772 46.6785 35.6495 46.7571 35.8392C46.8358 36.0289 46.8762 36.2322 46.8762 36.4375C46.8762 36.6429 46.8358 36.8462 46.7571 37.0359C46.6785 37.2255 46.5632 37.3979 46.418 37.543L41.7305 42.2305C41.4373 42.5237 41.0396 42.6884 40.625 42.6884C40.2104 42.6884 39.8127 42.5237 39.5195 42.2305C39.2263 41.9373 39.0616 41.5396 39.0616 41.125C39.0616 40.7104 39.2263 40.3127 39.5195 40.0195L41.541 38H39.2461C37.008 37.9982 34.8026 37.463 32.8126 36.439C30.8225 35.4149 29.1052 33.9314 27.8027 32.1113L19.6543 20.7051C18.6412 19.2896 17.3055 18.1358 15.7577 17.3393C14.2099 16.5428 12.4946 16.1266 10.7539 16.125H6.25C5.8356 16.125 5.43817 15.9604 5.14515 15.6674C4.85212 15.3743 4.6875 14.9769 4.6875 14.5625C4.6875 14.1481 4.85212 13.7507 5.14515 13.4577C5.43817 13.1646 5.8356 13 6.25 13H10.7539C12.992 13.0019 15.1974 13.537 17.1874 14.5611C19.1775 15.5851 20.8948 17.0686 22.1973 18.8887L30.3457 30.2949C31.3588 31.7105 32.6945 32.8642 34.2423 33.6607C35.7901 34.4572 37.5054 34.8735 39.2461 34.875H41.541L39.5195 32.8555C39.2263 32.5623 39.0616 32.1646 39.0616 31.75C39.0616 31.3354 39.2263 30.9377 39.5195 30.6445C39.8127 30.3514 40.2104 30.1866 40.625 30.1866C41.0396 30.1866 41.4373 30.3514 41.7305 30.6445L46.418 35.332ZM27.9297 21.3985C28.0967 21.5177 28.2855 21.6029 28.4854 21.6492C28.6853 21.6955 28.8924 21.702 29.0948 21.6683C29.2972 21.6345 29.491 21.5612 29.665 21.4526C29.8391 21.344 29.9901 21.2021 30.1094 21.0352L30.3438 20.709C31.3566 19.2925 32.6925 18.1378 34.2407 17.3406C35.7888 16.5434 37.5047 16.1267 39.2461 16.125H41.541L39.5195 18.1445C39.2263 18.4377 39.0616 18.8354 39.0616 19.25C39.0616 19.6646 39.2263 20.0623 39.5195 20.3555C39.8127 20.6487 40.2104 20.8134 40.625 20.8134C41.0396 20.8134 41.4373 20.6487 41.7305 20.3555L46.418 15.668C46.5632 15.5229 46.6785 15.3505 46.7571 15.1609C46.8358 14.9712 46.8762 14.7679 46.8762 14.5625C46.8762 14.3572 46.8358 14.1539 46.7571 13.9642C46.6785 13.7745 46.5632 13.6022 46.418 13.457L41.7305 8.76955C41.4373 8.47636 41.0396 8.31165 40.625 8.31165C40.2104 8.31165 39.8127 8.47636 39.5195 8.76955C39.2263 9.06273 39.0616 9.46038 39.0616 9.87501C39.0616 10.2896 39.2263 10.6873 39.5195 10.9805L41.541 13H39.2461C37.008 13.0019 34.8026 13.537 32.8126 14.5611C30.8225 15.5851 29.1052 17.0686 27.8027 18.8887L27.5684 19.2149C27.4484 19.3818 27.3625 19.5709 27.3158 19.7711C27.269 19.9713 27.2622 20.1788 27.2957 20.3817C27.3293 20.5845 27.4026 20.7788 27.5114 20.9532C27.6202 21.1277 27.7623 21.279 27.9297 21.3985ZM22.0703 29.6016C21.9033 29.4823 21.7145 29.3971 21.5146 29.3508C21.3147 29.3045 21.1076 29.298 20.9052 29.3318C20.7028 29.3655 20.509 29.4388 20.335 29.5474C20.1609 29.656 20.0099 29.7979 19.8906 29.9649L19.6562 30.291C18.6434 31.7075 17.3075 32.8622 15.7593 33.6594C14.2112 34.4566 12.4953 34.8733 10.7539 34.875H6.25C5.8356 34.875 5.43817 35.0396 5.14515 35.3327C4.85212 35.6257 4.6875 36.0231 4.6875 36.4375C4.6875 36.8519 4.85212 37.2493 5.14515 37.5424C5.43817 37.8354 5.8356 38 6.25 38H10.7539C12.992 37.9982 15.1974 37.463 17.1874 36.439C19.1775 35.4149 20.8948 33.9314 22.1973 32.1113L22.4316 31.7852C22.5516 31.6182 22.6375 31.4292 22.6842 31.2289C22.731 31.0287 22.7378 30.8212 22.7043 30.6184C22.6707 30.4155 22.5974 30.2213 22.4886 30.0468C22.3798 29.8723 22.2377 29.721 22.0703 29.6016Z" fill="#DFDFDF"/>
</g>
</svg>
